<svg version="1.1" id="Layer_1" xmlns="http://www.w3.org/2000/svg" xmlns:xlink="http://www.w3.org/1999/xlink" x="0px" y="0px"
	 width="100%" viewBox="0 0 126 110" enable-background="new 0 0 126 110" xml:space="preserve">
<path fill="#010101" opacity="1.000000" stroke="none" 
	d="
M73.000000,111.000000 
	C48.666668,111.000000 24.833334,111.000000 1.000000,111.000000 
	C1.000000,74.333336 1.000000,37.666668 1.000000,1.000000 
	C43.000000,1.000000 85.000000,1.000000 127.000000,1.000000 
	C127.000000,37.666668 127.000000,74.333336 127.000000,111.000000 
	C109.166664,111.000000 91.333336,111.000000 73.000000,111.000000 
M89.072136,87.076370 
	C89.072136,87.076370 89.056717,87.231743 89.663773,87.119003 
	C90.127937,86.757065 90.592094,86.395126 91.008362,85.999641 
	C91.008362,85.999641 91.014534,86.057777 91.584122,85.955673 
	C91.824623,85.669655 92.065117,85.383629 92.946053,84.937820 
	C97.003960,79.735321 101.061867,74.532814 105.587181,69.036949 
	C105.671425,68.693214 105.755661,68.349480 106.081390,67.579002 
	C106.081390,67.579002 106.066742,67.088882 106.559929,66.629097 
	C106.731461,65.761139 106.902992,64.893188 107.289589,63.869053 
	C107.289589,63.869053 107.194244,63.620945 107.728508,63.011841 
	C107.770042,59.348343 107.811577,55.684849 107.970589,51.513294 
	C107.931374,51.343952 107.892159,51.174610 108.004166,50.344872 
	C107.354340,48.519653 106.704514,46.694435 106.060646,44.448826 
	C106.060646,44.448826 106.146393,44.037231 106.763260,43.889847 
	C105.552986,40.245083 104.342712,36.600323 102.998299,32.288307 
	C102.206970,31.194691 101.415649,30.101074 100.381897,28.420801 
	C97.627609,25.912968 94.873322,23.405134 92.081581,20.947313 
	C92.081581,20.947313 92.138626,20.921999 91.959015,20.441460 
	C91.651672,20.365768 91.344330,20.290079 90.580032,20.032743 
	C90.580032,20.032743 90.093567,19.960972 89.924690,19.427460 
	C89.616219,19.325268 89.307747,19.223074 88.356163,18.840282 
	C85.903046,17.616590 83.449921,16.392899 80.301102,14.828405 
	C77.526306,14.337463 74.751503,13.846522 71.196686,13.145331 
	C70.124596,13.190603 69.052505,13.235875 67.508469,13.135317 
	C67.508469,13.135317 67.041954,13.297695 66.277763,13.150176 
	C64.510269,13.486781 62.742771,13.823386 60.205681,14.050213 
	C44.419834,18.228067 34.164215,27.932924 29.989885,44.757896 
	C29.877476,45.819557 29.765064,46.881214 29.336470,48.254913 
	C29.332947,48.684734 29.329424,49.114559 29.118565,50.480850 
	C29.810009,55.314659 30.501453,60.148468 31.178404,65.701401 
	C32.570274,68.466599 33.962143,71.231796 35.499107,74.625908 
	C37.663921,77.080193 39.828732,79.534477 42.272171,82.597496 
	C44.497566,84.116753 46.722961,85.636002 49.225380,87.683319 
	C49.777138,87.894302 50.328896,88.105278 51.356358,88.816841 
	C53.796211,89.668968 56.236065,90.521095 58.861919,91.357101 
	C58.861919,91.357101 58.677326,91.329247 59.260891,91.810165 
	C60.494728,91.849983 61.728561,91.889801 63.746922,92.251678 
	C68.866188,91.845177 73.985451,91.438667 79.565216,91.001572 
	C79.565216,91.001572 80.010521,90.879814 80.515251,91.031639 
	C80.663536,90.937416 80.811829,90.843193 81.673714,90.741035 
	C83.595055,89.864319 85.516403,88.987602 87.757057,88.148018 
	C87.757057,88.148018 87.961159,87.899658 88.517624,87.897507 
	C88.754082,87.630402 88.990547,87.363304 89.072136,87.076370 
z"/>
<path fill="#BF87C7" opacity="1.000000" stroke="none" 
	d="
M71.976707,13.355580 
	C74.751503,13.846522 77.526306,14.337463 80.757538,15.304411 
	C84.303665,19.081102 83.895828,21.160084 79.831467,23.808994 
	C74.929817,27.003592 70.824768,31.420443 66.278801,35.279510 
	C66.182701,35.250790 66.189056,35.055088 65.941177,35.302292 
	C65.492767,36.444656 65.292229,37.339821 65.102402,38.424244 
	C65.113106,38.613503 65.032799,38.984028 64.751007,39.153404 
	C63.644249,40.545616 62.819279,41.768452 61.712975,43.163883 
	C59.289616,45.214600 57.147587,47.092716 54.762596,49.054276 
	C54.181767,49.116695 53.843891,49.095676 53.226494,49.189121 
	C52.637730,49.553905 52.328491,49.804226 51.886841,50.241531 
	C51.555172,50.663631 51.325245,50.863464 50.732941,51.148643 
	C45.801327,57.212307 41.201424,63.155331 36.638725,69.050285 
	C34.278496,67.287201 32.735699,66.134743 31.192898,64.982277 
	C30.501453,60.148468 29.810009,55.314659 29.351315,50.496952 
	C30.385193,53.015144 31.186321,55.517231 32.027153,58.371971 
	C33.313862,59.276161 34.818409,60.554756 35.752800,60.223770 
	C37.547310,59.588104 39.184093,58.210629 40.596443,56.841789 
	C48.490025,49.191437 56.326805,41.481686 64.120453,33.729351 
	C67.851318,30.018250 71.559807,26.271496 75.059418,22.345659 
	C77.414871,19.703339 78.655624,16.828562 73.726608,14.948645 
	C72.962585,14.373488 72.469650,13.864534 71.976707,13.355580 
z"/>
<path fill="#DEAB86" opacity="1.000000" stroke="none" 
	d="
M79.104721,91.032166 
	C73.985451,91.438667 68.866188,91.845177 63.049595,91.883530 
	C61.127289,91.453339 59.902306,91.391296 58.677326,91.329254 
	C58.677326,91.329247 58.861919,91.357101 58.854065,91.023064 
	C58.895561,90.459312 58.944916,90.229591 58.872883,89.695023 
	C59.848568,87.946663 60.783730,86.330513 62.087616,85.107468 
	C63.430035,83.848274 65.525009,83.272079 66.596207,81.867416 
	C68.966537,78.759186 70.901291,75.318779 73.344635,72.011215 
	C74.117218,72.006027 74.558853,72.003471 75.347359,71.934921 
	C81.839554,68.887077 86.959869,64.921471 89.336395,57.888405 
	C90.451134,55.854370 91.232239,53.934227 92.411850,52.012131 
	C93.873108,52.005383 94.935837,52.000580 96.348862,51.964653 
	C97.465698,50.955414 98.232239,49.977295 98.999390,48.999588 
	C99.000000,49.000000 98.999084,48.998848 99.332077,48.923538 
	C100.776306,47.232426 101.887543,45.616627 102.999390,44.000412 
	C103.000000,44.000000 103.000839,43.998932 103.340607,43.997025 
	C104.133835,43.984669 104.587296,43.974224 105.317322,43.979958 
	C105.778046,44.009830 105.962219,44.023529 106.146393,44.037231 
	C106.146393,44.037231 106.060646,44.448826 105.977676,45.012913 
	C105.266861,47.381592 104.639015,49.186184 103.655380,51.022526 
	C98.199196,56.236534 93.152199,61.472740 87.984756,66.587242 
	C81.690666,72.816849 75.200813,78.851837 69.014847,85.185112 
	C67.596283,86.637459 67.072472,88.963760 65.455887,92.288353 
	C68.710556,91.652496 70.355637,91.331108 72.311905,90.960068 
	C73.408302,90.616997 74.193520,90.323578 75.225845,90.032150 
	C75.472946,90.034149 75.966492,90.029236 76.179466,90.215210 
	C76.919006,90.580933 77.445580,90.760674 78.255432,90.961624 
	C78.727379,90.999275 78.916046,91.015724 79.104721,91.032166 
z"/>
<path fill="#BD7CD8" opacity="1.000000" stroke="none" 
	d="
M71.586700,13.250456 
	C72.469650,13.864534 72.962585,14.373488 73.654694,15.282021 
	C64.979660,24.423597 56.110249,33.170479 47.225464,41.901711 
	C46.052456,43.054443 44.714897,44.047718 43.601448,45.251625 
	C39.695194,49.475227 35.853596,53.758625 31.987448,58.019321 
	C31.186321,55.517231 30.385193,53.015144 29.454983,50.028717 
	C29.329424,49.114559 29.332947,48.684734 29.827423,48.116661 
	C30.540508,47.984470 30.762642,47.990528 31.081287,48.274826 
	C32.956882,47.991386 34.969395,47.775242 36.451500,46.773972 
	C38.035236,45.704044 38.828545,43.254478 40.467682,42.510468 
	C50.527996,37.944084 54.899410,27.702572 62.546108,20.754574 
	C64.604912,18.883886 64.834709,16.520218 61.010418,15.692425 
	C60.996120,14.977233 60.985695,14.568612 60.975273,14.159990 
	C62.742771,13.823386 64.510269,13.486781 66.766777,13.304369 
	C67.255791,13.458561 67.643028,13.485312 67.643028,13.485312 
	C67.643028,13.485312 67.980415,13.281147 67.980415,13.281147 
	C69.052505,13.235875 70.124596,13.190603 71.586700,13.250456 
z"/>
<path fill="#B170DD" opacity="1.000000" stroke="none" 
	d="
M60.590477,14.105102 
	C60.985695,14.568612 60.996120,14.977233 60.768948,15.919951 
	C56.894688,19.732170 53.061180,22.820108 49.667339,26.332838 
	C44.530453,31.649675 39.745777,37.305309 34.698040,42.711098 
	C33.741982,43.734970 32.258053,44.265930 30.914337,44.839241 
	C30.660404,44.412590 30.481390,44.194344 30.273947,43.999416 
	C34.164215,27.932924 44.419834,18.228067 60.590477,14.105102 
z"/>
<path fill="#E4B273" opacity="1.000000" stroke="none" 
	d="
M74.978737,90.030159 
	C74.193520,90.323578 73.408302,90.616997 72.115524,90.696289 
	C72.951401,88.065956 73.889229,85.273697 75.714867,83.304543 
	C81.045708,77.554634 86.598557,71.992035 92.320305,66.629066 
	C96.686287,62.536854 101.442314,58.860775 106.052254,55.418648 
	C106.451195,58.432121 106.822716,61.026535 107.194244,63.620945 
	C107.194244,63.620945 107.289589,63.869053 106.960686,64.196159 
	C106.443436,65.378471 106.255089,66.233681 106.066742,67.088882 
	C106.066742,67.088882 106.081390,67.579002 105.751305,67.794846 
	C105.421219,68.010689 105.002823,68.030296 104.985168,68.025314 
	C104.967522,68.020332 104.936928,68.000084 104.875961,67.663025 
	C102.509338,63.208160 99.523972,63.678185 96.781319,66.555046 
	C89.412964,74.283958 82.233315,82.192780 74.978737,90.030159 
z"/>
<path fill="#E3AF7B" opacity="1.000000" stroke="none" 
	d="
M106.024834,54.999584 
	C101.442314,58.860775 96.686287,62.536854 92.320305,66.629066 
	C86.598557,71.992035 81.045708,77.554634 75.714867,83.304543 
	C73.889229,85.273697 72.951401,88.065956 71.804337,90.745934 
	C70.355637,91.331108 68.710556,91.652496 65.455887,92.288353 
	C67.072472,88.963760 67.596283,86.637459 69.014847,85.185112 
	C75.200813,78.851837 81.690666,72.816849 87.984756,66.587242 
	C93.152199,61.472740 98.199196,56.236534 104.039215,51.023933 
	C105.803551,50.997482 106.828247,51.001377 107.852943,51.005272 
	C107.892159,51.174610 107.931374,51.343952 107.735329,52.002197 
	C107.008324,53.327263 106.516579,54.163425 106.024834,54.999584 
z"/>
<path fill="#C491BF" opacity="1.000000" stroke="none" 
	d="
M31.185652,65.341843 
	C32.735699,66.134743 34.278496,67.287201 36.638725,69.050285 
	C41.201424,63.155331 45.801327,57.212307 50.724335,51.513790 
	C52.066650,53.419788 53.085857,55.081280 54.080513,57.195999 
	C54.072788,58.857880 54.089615,60.066525 53.916740,61.444828 
	C53.249989,61.781483 52.772930,61.948479 51.953590,62.179703 
	C51.066086,63.163086 50.520870,64.082245 49.630516,65.068756 
	C48.017101,66.117195 46.280334,66.838882 45.567036,68.127228 
	C43.287327,72.244766 39.834953,73.916100 35.354012,73.996994 
	C33.962143,71.231796 32.570274,68.466599 31.185652,65.341843 
z"/>
<path fill="#E7B561" opacity="1.000000" stroke="none" 
	d="
M87.961159,87.899658 
	C87.961159,87.899658 87.757057,88.148018 87.176208,88.106125 
	C84.958282,87.865234 83.321198,87.666229 81.617081,87.459084 
	C84.303108,84.394630 87.064095,82.188408 88.582207,79.323563 
	C92.153748,72.583687 98.631157,70.522003 104.936928,68.000084 
	C104.936928,68.000084 104.967522,68.020332 105.004456,68.350754 
	C105.067520,68.897568 105.093651,69.113945 105.119774,69.330315 
	C101.061867,74.532814 97.003960,79.735321 92.382507,85.137222 
	C91.550819,85.577003 91.282677,85.817390 91.014534,86.057777 
	C91.014534,86.057777 91.008362,85.999641 90.736839,86.077103 
	C89.995789,86.513618 89.526253,86.872681 89.056717,87.231750 
	C89.056717,87.231743 89.072136,87.076370 88.916107,87.183517 
	C88.493774,87.493660 88.227463,87.696663 87.961159,87.899658 
z"/>
<path fill="#D1A1A6" opacity="1.000000" stroke="none" 
	d="
M100.624329,29.007458 
	C101.415649,30.101074 102.206970,31.194691 102.717003,32.698486 
	C98.026184,37.173141 93.465691,41.091125 89.295975,45.388290 
	C87.986832,46.737442 87.728165,49.105930 86.742477,50.891594 
	C85.984871,50.594982 85.473480,50.414631 84.644287,50.044071 
	C82.890038,49.485386 81.453590,49.116909 80.022255,48.386765 
	C80.459709,46.949497 80.892044,45.873894 81.641388,44.735085 
	C83.718468,42.774654 85.478554,40.877422 87.537674,38.866299 
	C89.210861,37.345013 90.671883,36.011230 91.940292,34.514248 
	C94.275681,31.758013 96.240410,28.501915 100.624329,29.007458 
z"/>
<path fill="#CD9FA7" opacity="1.000000" stroke="none" 
	d="
M48.948357,87.155258 
	C46.722961,85.636002 44.497566,84.116753 42.355629,82.047836 
	C44.961327,78.327797 47.483562,75.157417 50.327320,71.933731 
	C51.459171,71.566269 52.269501,71.252098 53.486423,70.983566 
	C60.130661,70.972763 61.624264,68.956589 60.147339,62.991257 
	C61.616135,62.620815 62.737755,62.314407 64.024490,62.339973 
	C64.840515,64.770584 65.491432,66.869225 66.116112,69.283554 
	C66.098534,70.020660 66.107185,70.442070 65.728310,70.898895 
	C61.367702,72.813644 56.743080,73.972237 53.621758,76.793823 
	C50.988762,79.173973 47.618347,82.435211 48.948357,87.155258 
z"/>
<path fill="#E4B36C" opacity="1.000000" stroke="none" 
	d="
M104.875961,67.663025 
	C98.631157,70.522003 92.153748,72.583687 88.582207,79.323563 
	C87.064095,82.188408 84.303108,84.394630 81.617081,87.459084 
	C83.321198,87.666229 84.958282,87.865234 87.016556,88.087555 
	C85.516403,88.987602 83.595055,89.864319 81.198074,90.678253 
	C80.436478,90.552574 80.199165,90.640694 80.010521,90.879814 
	C80.010521,90.879814 79.565216,91.001572 79.334969,91.016869 
	C78.916046,91.015724 78.727379,90.999275 78.044647,90.776833 
	C77.022545,90.390297 76.494522,90.209770 75.966492,90.029236 
	C75.966492,90.029236 75.472946,90.034149 75.225845,90.032150 
	C82.233315,82.192780 89.412964,74.283958 96.781319,66.555046 
	C99.523972,63.678185 102.509338,63.208160 104.875961,67.663025 
z"/>
<path fill="#C48EC1" opacity="1.000000" stroke="none" 
	d="
M66.374901,35.308231 
	C70.824768,31.420443 74.929817,27.003592 79.831467,23.808994 
	C83.895828,21.160084 84.303665,19.081102 81.105392,15.474810 
	C83.449921,16.392899 85.903046,17.616590 88.677650,19.200855 
	C88.999138,19.561430 89.002777,20.002764 88.855728,20.324799 
	C85.487480,27.671339 78.739998,31.133120 73.265312,35.875244 
	C72.955009,36.144028 72.298096,36.012672 71.487534,35.900505 
	C69.573349,35.591717 67.974121,35.449974 66.374901,35.308231 
z"/>
<path fill="#D3A69B" opacity="1.000000" stroke="none" 
	d="
M86.988686,51.007854 
	C87.728165,49.105930 87.986832,46.737442 89.295975,45.388290 
	C93.465691,41.091125 98.026184,37.173141 102.784073,33.032112 
	C104.342712,36.600323 105.552986,40.245083 106.454826,43.963539 
	C105.962219,44.023529 105.778046,44.009830 105.309052,43.652420 
	C105.018547,42.870838 105.012878,42.432972 104.928162,41.661766 
	C103.520050,38.373032 101.787498,38.884830 99.904816,40.758156 
	C97.474678,43.176216 94.933212,45.497459 92.680031,48.070835 
	C91.787918,49.089714 91.541382,50.673843 90.737930,52.172729 
	C89.983749,53.231579 89.492538,54.118309 88.735146,55.122513 
	C87.914139,55.420807 87.359314,55.601627 86.821823,55.383972 
	C86.889000,53.659618 86.938843,52.333736 86.988686,51.007854 
z"/>
<path fill="#C897AD" opacity="1.000000" stroke="none" 
	d="
M100.503113,28.714130 
	C96.240410,28.501915 94.275681,31.758013 91.940292,34.514248 
	C90.671883,36.011230 89.210861,37.345013 87.258377,38.650749 
	C85.459503,37.265133 84.238960,35.981178 83.138023,34.403076 
	C86.510010,29.905319 93.484665,28.198343 92.119034,20.897301 
	C94.873322,23.405134 97.627609,25.912968 100.503113,28.714130 
z"/>
<path fill="#C793BA" opacity="1.000000" stroke="none" 
	d="
M92.100311,20.922306 
	C93.484665,28.198343 86.510010,29.905319 82.804405,34.451977 
	C81.908760,34.873184 81.466331,34.951344 80.981979,34.987709 
	C80.940056,34.945919 80.845009,34.875317 80.749046,34.796822 
	C80.386162,34.658916 80.172363,34.749310 79.882767,35.266136 
	C79.497253,36.309093 79.240662,37.075420 78.709442,37.966675 
	C77.995697,38.730240 77.556587,39.368874 76.757568,39.991676 
	C75.249214,39.655758 74.100784,39.335663 72.770920,38.753429 
	C72.327156,37.683372 72.064827,36.875462 71.802505,36.067547 
	C72.298096,36.012672 72.955009,36.144028 73.265312,35.875244 
	C78.739998,31.133120 85.487480,27.671339 89.128525,20.319202 
	C89.730103,19.981373 89.911835,19.971172 90.093567,19.960972 
	C90.093567,19.960972 90.580032,20.032743 90.969666,20.274036 
	C91.593521,20.699848 91.853302,20.835405 92.138626,20.921999 
	C92.138626,20.921999 92.081581,20.947313 92.100311,20.922306 
z"/>
<path fill="#C895B2" opacity="1.000000" stroke="none" 
	d="
M50.005798,71.987030 
	C47.483562,75.157417 44.961327,78.327797 42.216316,81.743469 
	C39.828732,79.534477 37.663921,77.080193 35.426559,74.311447 
	C39.834953,73.916100 43.287327,72.244766 45.567036,68.127228 
	C46.280334,66.838882 48.017101,66.117195 49.806450,65.076004 
	C50.327518,65.015884 50.679016,65.023499 50.674984,65.352669 
	C50.619675,66.117096 50.568394,66.552353 50.308258,67.144699 
	C50.068199,68.863533 50.036999,70.425278 50.005798,71.987030 
z"/>
<path fill="#D6A19F" opacity="1.000000" stroke="none" 
	d="
M49.086868,87.419289 
	C47.618347,82.435211 50.988762,79.173973 53.621758,76.793823 
	C56.743080,73.972237 61.367702,72.813644 65.714890,70.915947 
	C66.088997,70.897583 66.076279,70.879532 66.056099,71.270004 
	C66.024559,72.438614 66.013199,73.216751 65.694206,74.146118 
	C61.922073,78.198669 58.457565,82.099991 54.613426,86.010559 
	C53.116081,86.785278 51.998367,87.550774 50.880653,88.316261 
	C50.328896,88.105278 49.777138,87.894302 49.086868,87.419289 
z"/>
<path fill="#D3A69B" opacity="1.000000" stroke="none" 
	d="
M51.118507,88.566559 
	C51.998367,87.550774 53.116081,86.785278 54.827438,86.261154 
	C56.612144,87.668304 57.803211,88.834091 58.994274,89.999870 
	C58.944916,90.229591 58.895561,90.459312 58.761063,91.031128 
	C56.236065,90.521095 53.796211,89.668968 51.118507,88.566559 
z"/>
<path fill="#D7A97E" opacity="1.000000" stroke="none" 
	d="
M107.928558,50.675072 
	C106.828247,51.001377 105.803551,50.997482 104.395012,50.992180 
	C104.639015,49.186184 105.266861,47.381592 105.974701,45.223106 
	C106.704514,46.694435 107.354340,48.519653 107.928558,50.675072 
z"/>
<path fill="#D7A97E" opacity="1.000000" stroke="none" 
	d="
M106.052254,55.418648 
	C106.516579,54.163425 107.008324,53.327263 107.676590,52.256226 
	C107.811577,55.684849 107.770042,59.348343 107.461372,63.316391 
	C106.822716,61.026535 106.451195,58.432121 106.052254,55.418648 
z"/>
<path fill="#D3A69B" opacity="1.000000" stroke="none" 
	d="
M58.969109,91.569710 
	C59.902306,91.391296 61.127289,91.453339 62.657333,91.722504 
	C61.728561,91.889801 60.494728,91.849983 58.969109,91.569710 
z"/>
<path fill="#BF87C7" opacity="1.000000" stroke="none" 
	d="
M30.131916,44.378654 
	C30.481390,44.194344 30.660404,44.412590 30.906347,45.210281 
	C30.996063,46.509800 30.990419,47.253193 30.984776,47.996590 
	C30.762642,47.990528 30.540508,47.984470 29.985514,47.960640 
	C29.765064,46.881214 29.877476,45.819557 30.131916,44.378654 
z"/>
<path fill="#D7A97E" opacity="1.000000" stroke="none" 
	d="
M106.313339,66.858994 
	C106.255089,66.233681 106.443436,65.378471 106.853149,64.274246 
	C106.902992,64.893188 106.731461,65.761139 106.313339,66.858994 
z"/>
<path fill="#E4B36C" opacity="1.000000" stroke="none" 
	d="
M89.360245,87.175377 
	C89.526253,86.872681 89.995789,86.513618 90.760788,86.093872 
	C90.592094,86.395126 90.127937,86.757065 89.360245,87.175377 
z"/>
<path fill="#C897AD" opacity="1.000000" stroke="none" 
	d="
M90.009125,19.694216 
	C89.911835,19.971172 89.730103,19.981373 89.275574,19.997168 
	C89.002777,20.002764 88.999138,19.561430 88.999207,19.341156 
	C89.307747,19.223074 89.616219,19.325268 90.009125,19.694216 
z"/>
<path fill="#E4B36C" opacity="1.000000" stroke="none" 
	d="
M105.353477,69.183632 
	C105.093651,69.113945 105.067520,68.897568 105.022102,68.355743 
	C105.002823,68.030296 105.421219,68.010689 105.630554,68.008217 
	C105.755661,68.349480 105.671425,68.693214 105.353477,69.183632 
z"/>
<path fill="#E4B36C" opacity="1.000000" stroke="none" 
	d="
M91.299332,86.006729 
	C91.282677,85.817390 91.550819,85.577003 92.062286,85.217117 
	C92.065117,85.383629 91.824623,85.669655 91.299332,86.006729 
z"/>
<path fill="#E4B36C" opacity="1.000000" stroke="none" 
	d="
M88.239395,87.898582 
	C88.227463,87.696663 88.493774,87.493660 88.993546,87.193436 
	C88.990547,87.363304 88.754082,87.630402 88.239395,87.898582 
z"/>
<path fill="#BF87C7" opacity="1.000000" stroke="none" 
	d="
M67.744446,13.208232 
	C67.980415,13.281147 67.643028,13.485312 67.643028,13.485312 
	C67.643028,13.485312 67.255791,13.458561 67.148872,13.378128 
	C67.041954,13.297695 67.508469,13.135317 67.744446,13.208232 
z"/>
<path fill="#E4B273" opacity="1.000000" stroke="none" 
	d="
M80.262886,90.955727 
	C80.199165,90.640694 80.436478,90.552574 80.841286,90.682220 
	C80.811829,90.843193 80.663536,90.937416 80.262886,90.955727 
z"/>
<path fill="#C897AD" opacity="1.000000" stroke="none" 
	d="
M92.048820,20.681728 
	C91.853302,20.835405 91.593521,20.699848 91.198135,20.364859 
	C91.344330,20.290079 91.651672,20.365768 92.048820,20.681728 
z"/>
<path fill="#C183D1" opacity="1.000000" stroke="none" 
	d="
M32.027153,58.371971 
	C35.853596,53.758625 39.695194,49.475227 43.601448,45.251625 
	C44.714897,44.047718 46.052456,43.054443 47.225464,41.901711 
	C56.110249,33.170479 64.979660,24.423597 73.925781,15.348224 
	C78.655624,16.828562 77.414871,19.703339 75.059418,22.345659 
	C71.559807,26.271496 67.851318,30.018250 64.120453,33.729351 
	C56.326805,41.481686 48.490025,49.191437 40.596443,56.841789 
	C39.184093,58.210629 37.547310,59.588104 35.752800,60.223770 
	C34.818409,60.554756 33.313862,59.276161 32.027153,58.371971 
z"/>
<path fill="#FCF1F9" opacity="1.000000" stroke="none" 
	d="
M71.487534,35.900505 
	C72.064827,36.875462 72.327156,37.683372 72.757370,39.168369 
	C73.082436,44.570984 73.778519,48.867229 80.017143,48.748432 
	C81.453590,49.116909 82.890038,49.485386 84.646210,50.413887 
	C84.644669,52.684467 84.323410,54.395031 83.836411,56.170708 
	C83.670677,56.235825 83.314491,56.253593 83.099487,56.014351 
	C81.926521,54.515038 80.968567,53.254963 79.609718,51.985600 
	C71.720978,52.196163 70.033394,47.008820 68.840897,40.378231 
	C68.766083,48.776340 64.621742,52.636478 56.554722,52.601040 
	C69.335655,56.007359 67.226402,58.348831 68.120377,65.079781 
	C68.482643,65.617294 68.800980,65.882660 69.119308,66.148033 
	C69.364769,65.633850 69.610229,65.119675 69.856750,64.449249 
	C69.857803,64.292999 69.980553,64.005623 70.351257,64.003403 
	C71.462791,64.004707 72.203621,64.008232 72.943962,64.292023 
	C72.458252,66.109459 71.973045,67.646622 71.042084,69.146339 
	C69.111671,69.061874 67.627007,69.014862 66.142342,68.967850 
	C65.491432,66.869225 64.840515,64.770584 64.077805,61.951881 
	C62.939461,60.031219 62.131985,58.254040 60.836327,57.761780 
	C58.762825,56.973991 56.365501,57.038521 54.105061,56.742767 
	C53.085857,55.081280 52.066650,53.419788 51.056046,51.393154 
	C51.325245,50.863464 51.555172,50.663631 52.176666,50.150391 
	C52.901276,49.606400 53.203648,49.340527 53.506020,49.074657 
	C53.843891,49.095676 54.181767,49.116695 55.173809,49.080101 
	C59.569832,48.359009 64.495911,49.358261 64.405884,42.753868 
	C64.741287,41.300995 64.887039,40.142509 65.032799,38.984028 
	C65.032799,38.984028 65.113106,38.613503 65.335495,38.162903 
	C65.768272,36.826565 65.978661,35.940826 66.189056,35.055088 
	C66.189056,35.055088 66.182701,35.250790 66.278801,35.279510 
	C67.974121,35.449974 69.573349,35.591717 71.487534,35.900505 
z"/>
<path fill="#C491BF" opacity="1.000000" stroke="none" 
	d="
M64.216240,43.048264 
	C64.495911,49.358261 59.569832,48.359009 55.416771,48.996658 
	C57.147587,47.092716 59.289616,45.214600 62.082928,43.171638 
	C63.228222,43.020622 63.722229,43.034443 64.216240,43.048264 
z"/>
<path fill="#C48EC1" opacity="1.000000" stroke="none" 
	d="
M64.405884,42.753872 
	C63.722229,43.034443 63.228222,43.020622 62.364258,42.999046 
	C62.819279,41.768452 63.644249,40.545616 64.751007,39.153404 
	C64.887039,40.142509 64.741287,41.300995 64.405884,42.753872 
z"/>
<path fill="#C48EC1" opacity="1.000000" stroke="none" 
	d="
M65.941177,35.302292 
	C65.978661,35.940826 65.768272,36.826565 65.324783,37.973644 
	C65.292229,37.339821 65.492767,36.444656 65.941177,35.302292 
z"/>
<path fill="#C491BF" opacity="1.000000" stroke="none" 
	d="
M53.226494,49.189121 
	C53.203648,49.340527 52.901276,49.606400 52.309078,49.963409 
	C52.328491,49.804226 52.637730,49.553905 53.226494,49.189121 
z"/>
<path fill="#DBA892" opacity="1.000000" stroke="none" 
	d="
M58.872883,89.695023 
	C57.803211,88.834091 56.612144,87.668304 55.207069,86.251923 
	C58.457565,82.099991 61.922073,78.198669 66.063019,74.125992 
	C68.825409,73.302193 70.911362,72.649742 72.999832,71.999832 
	C73.002350,72.002357 73.013702,72.013863 73.013702,72.013863 
	C70.901291,75.318779 68.966537,78.759186 66.596207,81.867416 
	C65.525009,83.272079 63.430035,83.848274 62.087616,85.107468 
	C60.783730,86.330513 59.848568,87.946663 58.872883,89.695023 
z"/>
<path fill="#DCA98E" opacity="1.000000" stroke="none" 
	d="
M89.002747,58.002296 
	C86.959869,64.921471 81.839554,68.887077 75.416107,71.574234 
	C76.386513,69.481567 77.252098,66.847801 78.964867,66.063042 
	C82.328445,64.521904 83.317497,62.307430 83.313057,58.948120 
	C84.417816,58.595707 85.209518,58.297771 86.375862,58.000046 
	C87.499725,57.999516 88.248947,57.998779 88.999084,57.999023 
	C89.000000,58.000000 89.002747,58.002296 89.002747,58.002296 
z"/>
<path fill="#DBA892" opacity="1.000000" stroke="none" 
	d="
M91.000916,52.000610 
	C91.541382,50.673843 91.787918,49.089714 92.680031,48.070835 
	C94.933212,45.497459 97.474678,43.176216 99.904816,40.758156 
	C101.787498,38.884830 103.520050,38.373032 104.636337,41.750244 
	C103.949318,42.781025 103.475075,43.389977 103.000839,43.998932 
	C103.000839,43.998932 103.000000,44.000000 102.658096,44.075401 
	C101.210495,45.766815 100.104790,47.382828 98.999084,48.998848 
	C98.999084,48.998848 99.000000,49.000000 98.676300,49.070381 
	C97.567917,50.092430 96.783249,51.044102 95.998573,51.995773 
	C94.935837,52.000580 93.873108,52.005383 92.158676,52.007965 
	C91.338287,52.004032 91.169601,52.002323 91.000916,52.000610 
z"/>
<path fill="#DBA892" opacity="1.000000" stroke="none" 
	d="
M83.000000,59.002594 
	C83.317497,62.307430 82.328445,64.521904 78.964867,66.063042 
	C77.252098,66.847801 76.386513,69.481567 75.069229,71.640228 
	C74.558853,72.003471 74.117218,72.006027 73.344643,72.011215 
	C73.013702,72.013863 73.002350,72.002357 73.071060,71.641098 
	C74.242699,65.433540 78.024933,61.739067 83.000000,59.002594 
z"/>
<path fill="#DCA98E" opacity="1.000000" stroke="none" 
	d="
M90.737930,52.172729 
	C91.169601,52.002323 91.338287,52.004032 91.760155,52.009911 
	C91.232239,53.934227 90.451134,55.854370 89.336395,57.888405 
	C89.002747,58.002296 89.000000,58.000000 88.999702,57.624878 
	C89.000046,56.501518 89.000694,55.753281 89.001328,55.005039 
	C89.492538,54.118309 89.983749,53.231579 90.737930,52.172729 
z"/>
<path fill="#DCA98E" opacity="1.000000" stroke="none" 
	d="
M99.332077,48.923538 
	C100.104790,47.382828 101.210495,45.766815 102.657486,44.075813 
	C101.887543,45.616627 100.776306,47.232426 99.332077,48.923538 
z"/>
<path fill="#DCA98E" opacity="1.000000" stroke="none" 
	d="
M96.348862,51.964653 
	C96.783249,51.044102 97.567917,50.092430 98.675690,49.069969 
	C98.232239,49.977295 97.465698,50.955414 96.348862,51.964653 
z"/>
<path fill="#DCA98E" opacity="1.000000" stroke="none" 
	d="
M103.340607,43.997025 
	C103.475075,43.389977 103.949318,42.781025 104.715385,42.083591 
	C105.012878,42.432972 105.018547,42.870838 105.032494,43.636242 
	C104.587296,43.974224 104.133835,43.984669 103.340607,43.997025 
z"/>
<path fill="#E4B273" opacity="1.000000" stroke="none" 
	d="
M76.179466,90.215210 
	C76.494522,90.209770 77.022545,90.390297 77.761360,90.755630 
	C77.445580,90.760674 76.919006,90.580933 76.179466,90.215210 
z"/>
<path fill="#BC77DF" opacity="1.000000" stroke="none" 
	d="
M31.081287,48.274826 
	C30.990419,47.253193 30.996063,46.509800 31.009701,45.395367 
	C32.258053,44.265930 33.741982,43.734970 34.698040,42.711098 
	C39.745777,37.305309 44.530453,31.649675 49.667339,26.332838 
	C53.061180,22.820108 56.894688,19.732170 60.772823,16.226521 
	C64.834709,16.520218 64.604912,18.883886 62.546108,20.754574 
	C54.899410,27.702572 50.527996,37.944084 40.467682,42.510468 
	C38.828545,43.254478 38.035236,45.704044 36.451500,46.773972 
	C34.969395,47.775242 32.956882,47.991386 31.081287,48.274826 
z"/>
<path fill="#FAEDF5" opacity="1.000000" stroke="none" 
	d="
M50.517117,66.987610 
	C50.568394,66.552353 50.619675,66.117096 50.847507,65.067230 
	C51.447998,63.673565 51.871937,62.894520 52.295872,62.115471 
	C52.772930,61.948479 53.249989,61.781483 54.258339,61.436096 
	C56.459812,61.856899 58.129986,62.456097 59.800163,63.055294 
	C61.624264,68.956589 60.130661,70.972763 53.298889,70.704063 
	C51.975544,69.248482 51.246330,68.118050 50.517117,66.987610 
z"/>
<path fill="#C89FB7" opacity="1.000000" stroke="none" 
	d="
M60.147339,62.991257 
	C58.129986,62.456097 56.459812,61.856899 54.448036,61.266438 
	C54.089615,60.066525 54.072788,58.857880 54.080513,57.195999 
	C56.365501,57.038521 58.762825,56.973991 60.836327,57.761780 
	C62.131985,58.254040 62.939461,60.031219 63.912689,61.619904 
	C62.737755,62.314407 61.616135,62.620815 60.147339,62.991257 
z"/>
<path fill="#C89FB7" opacity="1.000000" stroke="none" 
	d="
M51.953590,62.179703 
	C51.871937,62.894520 51.447998,63.673565 50.851540,64.738052 
	C50.679016,65.023499 50.327518,65.015884 50.151585,65.008636 
	C50.520870,64.082245 51.066086,63.163086 51.953590,62.179703 
z"/>
<path fill="#CBA1B7" opacity="1.000000" stroke="none" 
	d="
M80.022255,48.386765 
	C73.778519,48.867229 73.082436,44.570984 72.938805,39.430511 
	C74.100784,39.335663 75.249214,39.655758 76.991730,40.225113 
	C78.832001,41.915680 80.078194,43.356987 81.324387,44.798294 
	C80.892044,45.873894 80.459709,46.949497 80.022255,48.386765 
z"/>
<path fill="#FCF0F7" opacity="1.000000" stroke="none" 
	d="
M81.641388,44.735088 
	C80.078194,43.356987 78.832001,41.915680 77.351639,40.240940 
	C77.556587,39.368874 77.995697,38.730240 79.034843,37.933220 
	C80.097893,36.859726 80.560905,35.944614 81.023911,35.029503 
	C81.466331,34.951344 81.908760,34.873184 82.684799,34.746124 
	C84.238960,35.981178 85.459503,37.265133 86.959343,38.764641 
	C85.478554,40.877422 83.718468,42.774654 81.641388,44.735088 
z"/>
<path fill="#FAF0EC" opacity="1.000000" stroke="none" 
	d="
M84.002144,56.105591 
	C84.323410,54.395031 84.644669,52.684467 84.964012,50.604095 
	C85.473480,50.414631 85.984871,50.594982 86.742477,50.891594 
	C86.938843,52.333736 86.889000,53.659618 86.842407,55.409458 
	C86.845650,55.833416 86.904877,55.809937 86.540405,55.822365 
	C85.451340,55.925056 84.726746,56.015327 84.002144,56.105591 
z"/>
<path fill="#C89FB7" opacity="1.000000" stroke="none" 
	d="
M50.308258,67.144699 
	C51.246330,68.118050 51.975544,69.248482 52.892296,70.658432 
	C52.269501,71.252098 51.459171,71.566269 50.327320,71.933731 
	C50.036999,70.425278 50.068199,68.863533 50.308258,67.144699 
z"/>
<path fill="#FAF0EC" opacity="1.000000" stroke="none" 
	d="
M66.116112,69.283546 
	C67.627007,69.014862 69.111671,69.061874 70.848068,69.481163 
	C69.425301,70.195473 67.750786,70.537498 66.076279,70.879532 
	C66.076279,70.879532 66.088997,70.897583 66.102417,70.880539 
	C66.107185,70.442070 66.098534,70.020660 66.116112,69.283546 
z"/>
<path fill="#DBA892" opacity="1.000000" stroke="none" 
	d="
M88.735153,55.122513 
	C89.000694,55.753281 89.000046,56.501518 88.998787,57.623901 
	C88.248947,57.998779 87.499725,57.999516 86.500694,57.732391 
	C86.468887,56.912998 86.686882,56.361465 86.904877,55.809937 
	C86.904877,55.809937 86.845650,55.833416 86.825073,55.807930 
	C87.359314,55.601627 87.914139,55.420807 88.735153,55.122513 
z"/>
<path fill="#CBA1B7" opacity="1.000000" stroke="none" 
	d="
M80.981987,34.987713 
	C80.560905,35.944614 80.097893,36.859726 79.309479,37.808292 
	C79.240662,37.075420 79.497253,36.309093 80.091873,35.243896 
	C80.429909,34.945034 80.845009,34.875317 80.845009,34.875317 
	C80.845009,34.875317 80.940056,34.945919 80.981987,34.987713 
z"/>
<path fill="#C897AD" opacity="1.000000" stroke="none" 
	d="
M80.749046,34.796822 
	C80.845009,34.875317 80.429909,34.945034 80.220795,34.967270 
	C80.172363,34.749310 80.386162,34.658916 80.749046,34.796822 
z"/>
<path fill="#D3A69B" opacity="1.000000" stroke="none" 
	d="
M86.540405,55.822365 
	C86.686882,56.361465 86.468887,56.912998 86.126053,57.732182 
	C85.209518,58.297771 84.417816,58.595707 83.313057,58.948120 
	C78.024933,61.739067 74.242699,65.433540 73.068542,71.638565 
	C70.911362,72.649742 68.825409,73.302193 66.370644,73.974762 
	C66.013199,73.216751 66.024559,72.438614 66.056099,71.270004 
	C67.750786,70.537498 69.425301,70.195473 71.293823,69.518616 
	C71.973045,67.646622 72.458252,66.109459 73.110489,63.957012 
	C73.591782,59.486526 75.695137,57.544350 79.541336,57.244389 
	C80.817055,57.144897 82.057770,56.596664 83.314491,56.253593 
	C83.314491,56.253593 83.670677,56.235825 83.836411,56.170708 
	C84.726746,56.015327 85.451340,55.925056 86.540405,55.822365 
z"/>
<path fill="#C9A3B4" opacity="1.000000" stroke="none" 
	d="
M68.076447,64.807640 
	C67.226402,58.348831 69.335655,56.007359 56.554722,52.601040 
	C64.621742,52.636478 68.766083,48.776340 68.840897,40.378231 
	C70.033394,47.008820 71.720978,52.196163 79.700119,52.260178 
	C79.499069,53.030518 78.870735,53.769650 78.104309,53.963905 
	C71.378891,55.668503 70.489227,56.724747 69.980553,64.005623 
	C69.980553,64.005623 69.857803,64.292999 69.567329,64.539841 
	C68.876717,64.793671 68.476585,64.800652 68.076447,64.807640 
z"/>
<path fill="#FAF0EC" opacity="1.000000" stroke="none" 
	d="
M70.351257,64.003403 
	C70.489227,56.724747 71.378891,55.668503 78.104309,53.963905 
	C78.870735,53.769650 79.499069,53.030518 80.101028,52.269463 
	C80.968567,53.254963 81.926521,54.515038 83.099487,56.014351 
	C82.057770,56.596664 80.817055,57.144897 79.541336,57.244389 
	C75.695137,57.544350 73.591782,59.486526 73.110992,63.676750 
	C72.203621,64.008232 71.462791,64.004707 70.351257,64.003403 
z"/>
<path fill="#FAF0EC" opacity="1.000000" stroke="none" 
	d="
M68.120377,65.079781 
	C68.476585,64.800652 68.876717,64.793671 69.566269,64.696091 
	C69.610229,65.119675 69.364769,65.633850 69.119308,66.148033 
	C68.800980,65.882660 68.482643,65.617294 68.120377,65.079781 
z"/>
</svg>